<?xml version="1.0" standalone="no"?>
<!DOCTYPE svg PUBLIC "-//W3C//DTD SVG 20010904//EN"
 "http://www.w3.org/TR/2001/REC-SVG-20010904/DTD/svg10.dtd">
<svg version="1.0" xmlns="http://www.w3.org/2000/svg"
 width="227.000000pt" height="227.000000pt" viewBox="0 0 227.000000 227.000000"
 preserveAspectRatio="xMidYMid meet">
<metadata>
Created by potrace 1.11, written by Peter Selinger 2001-2013
</metadata>
<g transform="translate(0.000000,227.000000) scale(0.100000,-0.100000)"
fill="#000000" stroke="none">
<path d="M1232 2186 c-19 -5 -45 -24 -59 -43 -23 -30 -25 -40 -21 -97 6 -73
30 -115 77 -138 l30 -14 -38 -52 c-22 -29 -42 -67 -46 -84 -4 -18 -17 -44 -30
-58 -13 -14 -28 -45 -35 -70 -6 -25 -14 -53 -16 -63 -3 -10 -23 -38 -44 -62
-22 -25 -43 -53 -48 -61 -8 -13 -18 -15 -56 -10 -25 4 -53 15 -62 24 -15 15
-16 14 -10 -6 8 -24 -3 -29 -22 -10 -6 6 -14 9 -18 5 -12 -12 44 -55 95 -73
46 -17 51 -21 51 -50 0 -57 29 -122 65 -144 25 -16 34 -29 37 -58 3 -20 3 -43
0 -50 -6 -18 -47 -25 -72 -12 -25 13 -108 6 -152 -13 -30 -13 -168 -168 -168
-189 0 -8 -13 -19 -29 -25 l-29 -11 -1 77 -1 76 73 70 c79 75 97 100 97 137 0
13 7 33 15 44 23 30 18 54 -13 65 -16 5 -36 25 -47 45 -11 20 -28 40 -39 44
-17 6 -20 15 -17 58 2 36 -1 52 -10 52 -19 0 -81 -41 -123 -81 -39 -38 -39
-38 -55 -17 -44 53 -85 -22 -102 -187 -9 -84 -7 -98 18 -157 22 -53 3 -119
-45 -156 -114 -88 -142 -130 -142 -212 0 -89 27 -163 83 -226 43 -47 54 -55
79 -52 15 3 28 2 28 -1 0 -3 34 -14 75 -24 l75 -19 59 46 60 45 12 -56 c10
-42 10 -62 1 -86 -7 -17 -8 -34 -4 -38 17 -15 109 -29 200 -30 86 -1 112 3
188 30 49 16 118 37 154 45 78 19 284 21 378 5 81 -14 89 -7 62 60 -23 59 -24
87 -6 155 l13 49 122 2 c89 2 126 6 135 16 14 15 60 143 71 196 9 44 -10 99
-51 149 -26 33 -44 45 -82 53 -26 7 -73 26 -103 44 -29 17 -72 39 -94 47 -38
15 -40 19 -46 65 -8 61 -43 141 -77 178 l-26 27 33 32 c26 26 31 37 26 57 -9
31 -9 95 -1 116 4 12 10 12 43 -2 55 -23 147 -21 181 3 72 52 99 196 54 282
-35 65 -94 120 -139 127 -81 12 -111 27 -198 96 -49 39 -109 80 -133 90 -59
26 -140 37 -180 25z m163 -37 c27 -11 93 -53 145 -94 92 -73 136 -95 192 -95
59 0 143 -111 153 -203 3 -26 -1 -61 -12 -92 -24 -66 -66 -95 -139 -95 -87 0
-130 32 -105 79 11 20 21 24 78 36 17 3 38 14 45 23 11 14 11 15 -7 7 -39 -16
-75 -17 -127 -5 -49 12 -62 22 -164 126 -61 63 -119 114 -128 114 -10 0 -31
-8 -46 -17 -24 -13 -34 -15 -54 -5 -33 15 -59 75 -58 131 2 113 82 145 227 90z
m34 -318 c100 -103 151 -141 188 -141 20 0 21 -2 8 -27 -8 -14 -19 -49 -26
-76 l-12 -50 -21 29 c-83 116 -175 167 -304 168 -71 1 -73 2 -67 24 9 38 105
172 123 172 8 0 58 -44 111 -99z m-74 -132 c75 -23 121 -49 148 -85 16 -22 17
-28 3 -74 -11 -37 -12 -58 -5 -77 7 -20 6 -30 -7 -44 -9 -10 -14 -23 -12 -29
2 -7 22 6 45 29 43 44 63 51 63 24 0 -26 -41 -63 -69 -63 -40 0 -104 -47 -98
-72 5 -18 2 -20 -24 -14 -16 3 -64 29 -107 57 -58 38 -76 55 -74 70 2 10 -2
19 -7 19 -6 0 -11 -4 -11 -10 0 -5 -17 -10 -39 -10 -65 0 -84 50 -24 64 49 13
71 32 66 60 -7 32 -36 58 -57 50 -12 -4 -15 -13 -10 -28 8 -27 9 -27 31 -30
27 -4 21 -20 -13 -30 -69 -20 -76 -26 -71 -51 4 -23 1 -25 -29 -25 -19 0 -34
4 -34 8 0 5 22 32 50 62 27 29 47 57 44 62 -11 17 17 76 39 82 12 3 23 2 25
-3 6 -18 31 -46 36 -40 3 3 1 20 -5 38 -11 30 -15 32 -42 27 l-31 -6 23 24
c37 40 101 44 196 15z m-675 -280 c-6 -13 -26 -49 -45 -79 -34 -54 -45 -87
-25 -75 6 4 22 29 35 56 33 63 58 63 99 -2 14 -22 14 -28 3 -38 -11 -9 -17 -8
-27 4 -38 46 -105 -30 -72 -82 4 -7 22 -16 40 -19 29 -6 32 -4 54 40 17 35 28
46 45 46 26 0 30 -21 8 -40 -8 -7 -15 -28 -15 -47 0 -31 -11 -46 -91 -124
l-91 -89 7 -48 c13 -94 -37 -291 -88 -349 -35 -39 -117 -83 -158 -83 -27 0
-68 24 -58 35 4 3 -2 38 -12 78 -33 127 -29 141 70 237 84 82 106 125 96 194
-3 28 -11 57 -17 64 -26 31 8 266 42 287 5 3 8 -31 8 -80 l-1 -85 47 -50 c50
-53 51 -56 36 -94 -5 -14 -6 -26 -1 -26 12 0 21 26 21 63 0 23 -10 42 -37 69
-35 36 -38 43 -38 97 0 58 1 59 54 107 30 27 58 51 62 52 16 6 -4 -32 -33 -66
-15 -18 -35 -49 -43 -69 -18 -42 -18 -43 -6 -43 5 0 17 17 26 38 10 20 30 51
45 67 15 17 31 41 35 55 4 14 13 31 19 39 9 12 11 12 14 -1 2 -8 -2 -25 -8
-39z m490 -94 c36 -32 148 -85 182 -85 35 0 36 -14 3 -36 -28 -18 -33 -58 -11
-86 15 -20 41 -24 51 -8 3 6 11 10 17 10 8 0 9 -28 4 -92 -6 -89 -7 -93 -43
-131 -21 -21 -48 -40 -59 -43 -30 -8 -98 29 -159 87 l-51 48 -2 91 -2 91 24
-16 c33 -22 83 -22 104 0 16 16 16 17 -8 10 -14 -4 -27 -7 -30 -7 -28 -1 -43
5 -60 22 -16 16 -25 18 -39 10 -16 -8 -24 -4 -45 21 -14 17 -26 41 -26 54 0
13 -4 27 -10 30 -11 7 -14 48 -3 58 3 4 36 4 72 1 49 -4 72 -12 91 -29z m376
7 c17 -15 43 -54 58 -86 24 -49 28 -67 23 -111 -6 -57 11 -93 76 -162 29 -31
34 -32 98 -30 54 2 71 -2 88 -17 27 -24 40 -13 16 14 -18 19 -17 20 4 20 45 0
101 -88 101 -155 0 -11 -12 -47 -25 -80 -14 -33 -25 -66 -25 -72 0 -7 -8 -21
-18 -30 -27 -28 -193 -25 -247 4 -47 25 -102 81 -139 141 -24 38 -26 51 -24
124 3 75 1 81 -21 97 -51 36 -71 63 -71 100 0 21 -5 42 -12 49 -17 17 -48 15
-48 -3 0 -25 -19 -17 -26 11 -8 31 7 44 54 44 19 0 40 -8 53 -21 25 -25 35
-19 20 10 -7 11 -24 23 -39 27 -48 10 -48 12 1 13 41 1 49 -2 59 -24 13 -28
34 -35 23 -7 -4 9 -9 23 -12 30 -9 22 14 13 31 -13 23 -36 37 -31 19 6 -9 18
-24 34 -34 36 -15 4 -17 9 -8 25 15 28 -13 58 -39 42 -9 -7 -16 -19 -14 -28 2
-9 -1 -16 -6 -16 -5 0 -12 11 -14 25 -4 20 1 29 26 45 39 25 38 25 72 -8z
m-49 -54 c-3 -8 -6 -5 -6 6 -1 11 2 17 5 13 3 -3 4 -12 1 -19z m-783 -14 c10
-26 7 -62 -6 -67 -22 -7 -48 13 -48 36 0 40 41 64 54 31z m967 -221 c13 -16
12 -17 -3 -4 -17 13 -22 21 -14 21 2 0 10 -8 17 -17z m-597 -17 c-12 -48 78
-150 168 -190 l47 -21 -27 -33 c-24 -29 -31 -32 -53 -23 -45 17 -146 151 -169
225 -11 35 -11 41 6 53 26 19 35 16 28 -11z m316 -211 c-14 -42 -22 -43 -45
-8 -18 26 -17 27 16 54 32 26 34 27 37 8 2 -11 -2 -35 -8 -54z m9 -280 c0 -5
-4 -3 -9 5 -5 8 -9 22 -9 30 0 16 17 -16 18 -35z m-560 -271 c10 -9 -65 -3
-78 5 -10 6 1 8 30 4 24 -3 46 -7 48 -9z m105 -4 c3 -3 -17 -6 -44 -6 -28 -1
-50 2 -50 6 0 8 86 8 94 0z"/>
<path d="M1320 1630 c-40 -34 -22 -41 28 -10 32 20 32 20 52 0 22 -22 30 -25
30 -10 0 17 -39 50 -58 50 -10 0 -33 -13 -52 -30z"/>
<path d="M1331 1546 c-10 -12 -8 -13 10 -9 19 5 20 4 10 -16 -12 -22 -12 -22
37 -37 6 -2 12 1 12 7 0 6 14 -5 31 -23 18 -18 29 -25 26 -16 -4 13 -2 16 11
12 13 -4 12 -2 -2 8 -11 7 -36 30 -55 51 -36 39 -61 46 -80 23z"/>
<path d="M1280 1505 c-8 -9 -8 -15 -2 -15 12 0 26 19 19 26 -2 2 -10 -2 -17
-11z"/>
</g>
</svg>
